<svg width="100%" viewBox="0 0 680 390" xmlns="http://www.w3.org/2000/svg" style="font-family:sans-serif;background:#fafafa">
<rect width="680" height="390" fill="#fafafa" rx="12"/>
<defs><marker id="a" viewBox="0 0 10 10" refX="8" refY="5" markerWidth="6" markerHeight="6" orient="auto-start-reverse"><path d="M2 1L8 5L2 9" fill="none" stroke="context-stroke" stroke-width="1.5" stroke-linecap="round" stroke-linejoin="round"/></marker></defs>
<text font-size="13" font-weight="600" x="340" y="28" text-anchor="middle" fill="#1a1a1a">Project 8 — USGS Global Earthquake Monitor (Kafka + Elasticsearch)</text>
<text font-size="11" fill="#888" x="28" y="82" text-anchor="middle">Source</text>
<text font-size="11" fill="#888" x="28" y="162" text-anchor="middle">Ingest</text>
<text font-size="11" fill="#888" x="28" y="244" text-anchor="middle">Process</text>
<text font-size="11" fill="#888" x="28" y="324" text-anchor="middle">Index</text>
<line x1="55" y1="112" x2="645" y2="112" stroke="#e0e0e0" stroke-width="0.5" stroke-dasharray="4 3"/>
<line x1="55" y1="192" x2="645" y2="192" stroke="#e0e0e0" stroke-width="0.5" stroke-dasharray="4 3"/>
<line x1="55" y1="276" x2="645" y2="276" stroke="#e0e0e0" stroke-width="0.5" stroke-dasharray="4 3"/>
<rect x="62" y="52" width="520" height="48" rx="8" fill="#E1F5EE" stroke="#0F6E56" stroke-width="0.5"/>
<text font-size="12" font-weight="600" x="322" y="72" text-anchor="middle" fill="#085041">USGS Earthquake Hazards API</text>
<text font-size="11" x="322" y="90" text-anchor="middle" fill="#0F6E56">earthquake.usgs.gov/fdsnws/event/1 · free · no key · GeoJSON · updated every 5 min</text>
<line x1="322" y1="100" x2="322" y2="132" stroke="#0F6E56" stroke-width="1.5" marker-end="url(#a)"/>
<rect x="62" y="132" width="520" height="44" rx="8" fill="#EEEDFE" stroke="#534AB7" stroke-width="0.5"/>
<text font-size="12" font-weight="600" x="322" y="152" text-anchor="middle" fill="#3C3489">Kafka: usgs-earthquakes  |  GZIP  |  key: event_id  |  M≥1.0 globally</text>
<line x1="322" y1="176" x2="322" y2="202" stroke="#534AB7" stroke-width="1.5" marker-end="url(#a)"/>
<rect x="62" y="202" width="390" height="62" rx="8" fill="#E6F1FB" stroke="#185FA5" stroke-width="0.5"/>
<text font-size="12" font-weight="600" x="257" y="222" text-anchor="middle" fill="#0C447C">PySpark Streaming Enrichment</text>
<text font-size="11" x="257" y="240" text-anchor="middle" fill="#185FA5">depth category · tsunami risk scoring · alert level</text>
<text font-size="11" x="257" y="257" text-anchor="middle" fill="#185FA5">is_significant flag (sig ≥ 600) · 30s trigger</text>
<rect x="464" y="202" width="118" height="62" rx="8" fill="#FAEEDA" stroke="#854F0B" stroke-width="0.5"/>
<text font-size="11" font-weight="600" x="523" y="228" text-anchor="middle" fill="#633806">Airflow</text>
<text font-size="10" x="523" y="246" text-anchor="middle" fill="#854F0B">every 30 min</text>
<line x1="257" y1="264" x2="257" y2="286" stroke="#185FA5" stroke-width="1.5" marker-end="url(#a)"/>
<rect x="62" y="286" width="520" height="72" rx="8" fill="#FAECE7" stroke="#993C1D" stroke-width="0.5"/>
<text font-size="12" font-weight="600" x="322" y="306" text-anchor="middle" fill="#712B13">Elasticsearch + Kibana</text>
<text font-size="11" x="322" y="323" text-anchor="middle" fill="#993C1D">geo_point mapping · geo_distance queries · full-text search on place</text>
<text font-size="11" x="322" y="340" text-anchor="middle" fill="#993C1D">magnitude + tsunami risk aggregations · geospatial heatmaps in Kibana</text>
</svg>
